<?xml version="1.0" encoding="UTF-8" standalone="no"?>
<!-- This Source Code Form is subject to the terms of the Mozilla Public
   - License, v. 2.0. If a copy of the MPL was not distributed with this
   - file, You can obtain one at http://mozilla.org/MPL/2.0/. -->
   
<!-- Edited with Inkscape (http://www.inkscape.org/) -->

<svg
   width="32"
   height="32"
   viewBox="0 0 32 32"
   version="1.1"
   id="svg5"
   inkscape:version="1.1.2 (b8e25be833, 2022-02-05)"
   sodipodi:docname="drawing.svg"
   xmlns:inkscape="http://www.inkscape.org/namespaces/inkscape"
   xmlns:sodipodi="http://sodipodi.sourceforge.net/DTD/sodipodi-0.dtd"
   xmlns="http://www.w3.org/2000/svg"
   xmlns:svg="http://www.w3.org/2000/svg">
  <sodipodi:namedview
     id="namedview7"
     pagecolor="#ffffff"
     bordercolor="#666666"
     borderopacity="1.0"
     inkscape:pageshadow="2"
     inkscape:pageopacity="0.0"
     inkscape:pagecheckerboard="0"
     inkscape:document-units="px"
     showgrid="false"
     inkscape:zoom="9.9866775"
     inkscape:cx="2.6535352"
     inkscape:cy="14.41921"
     inkscape:window-width="1366"
     inkscape:window-height="705"
     inkscape:window-x="-8"
     inkscape:window-y="-8"
     inkscape:window-maximized="1"
     inkscape:current-layer="layer1" />
  <defs
     id="defs2">
    <linearGradient
       id="a"
       x1="-102.26"
       y1="165.14"
       x2="-102.26"
       y2="164.98"
       gradientTransform="matrix(160 0 0 -128 16377 21140)"
       gradientUnits="userSpaceOnUse">
      <!-- top left section -->
      <stop
         offset=".6"
         stop-color="#fff"
         id="stop82" />
      <stop
         offset="1"
         stop-color="#fff"
         stop-opacity="0"
         id="stop84" />
    </linearGradient>
    <linearGradient
       id="b"
       x1="-101.35"
       y1="165.18"
       x2="-101.35"
       y2="165.03"
       gradientTransform="matrix(72,0,0,-128,7313,21140)"
       gradientUnits="userSpaceOnUse">
      <stop
         offset="0"
         stop-color="#ff6bba"
         id="stop87" />
      <!-- top right corner background -->
      <stop
         offset="1"
         stop-color="#271d4d"
         id="stop89" />
      <!-- most of the background -->
    </linearGradient>
    <linearGradient
       id="d"
       x1="-102.28"
       y1="165.06"
       x2="-102.23"
       y2="165.05"
       gradientTransform="matrix(160,0,0,-128,16377,21140)"
       gradientUnits="userSpaceOnUse">
      <!-- top right corner of top left section -->
      <stop
         offset="0"
         stop-color="#fc56a1"
         id="stop92" />
      <stop
         offset="1"
         stop-color="#fc56a1"
         stop-opacity="0"
         id="stop94" />
    </linearGradient>
    <linearGradient
       id="e"
       x1="-102.13"
       y1="165.06"
       x2="-102.05"
       y2="165.01"
       gradientTransform="matrix(128,0,0,-128,13081,21140)"
       gradientUnits="userSpaceOnUse">
      <!-- gradient continuing from d -->
      <stop
         offset="0"
         stop-color="#fc4ca0"
         id="stop97" />
      <!-- upper part -->
      <stop
         offset="1"
         stop-color="#ffa769"
         id="stop99" />
      <!-- lower part -->
    </linearGradient>
    <linearGradient
       id="f"
       x1="-102.01"
       y1="165.09"
       x2="-101.93"
       y2="165.03"
       gradientTransform="matrix(107,0,0,-128,10918,21140)"
       gradientUnits="userSpaceOnUse">
      <!-- 1st main gradient from right in top left section, extends around and outside too -->
      <stop
         offset="0"
         stop-color="#4e27a4"
         id="stop102" />
      <!-- top left corner -->
      <stop
         offset=".34"
         stop-color="#8b4ee5"
         id="stop104" />
      <!-- next section -->
      <stop
         offset=".73"
         stop-color="#ff4ad9"
         id="stop106" />
      <!-- next section (most of what's left in the box, extends to neighbouring gradient too) -->
      <stop
         offset="1"
         stop-color="#ff778e"
         id="stop108" />
      <!-- leftovers in the box as well as the part outside it -->
    </linearGradient>
    <linearGradient
       id="g"
       x1="-101.95"
       y1="165.14"
       x2="-101.8"
       y2="164.97"
       gradientTransform="matrix(99,0,0,-128,10094.01,21140)"
       gradientUnits="userSpaceOnUse">
      <!-- 2nd main gradient from right in top left section -->
      <stop
         offset="0"
         stop-color="#20123a"
         id="stop111" />
      <!-- upper part -->
      <stop
         offset=".51"
         stop-color="#5f2eca"
         id="stop113" />
      <!-- main part -->
      <stop
         offset="1"
         stop-color="#7542e5"
         stop-opacity="0"
         id="stop115" />
      <!-- bottom part -->
    </linearGradient>
    <mask
       id="c"
       x="2"
       y="2"
       width="26.73"
       height="21"
       maskUnits="userSpaceOnUse">
      <path
         fill="url(#a)"
         d="M2 2h26.73v21H2z"
         id="path118" />
    </mask>
    <linearGradient
       id="b-0"
       x1="-101.35"
       y1="165.18"
       x2="-101.35"
       y2="165.03"
       gradientTransform="matrix(72,0,0,-128,7313,21140)"
       gradientUnits="userSpaceOnUse">
      <stop
         offset="0"
         stop-color="#ff6bba"
         id="stop352" />
      <!-- top right corner background -->
      <stop
         offset="1"
         stop-color="#271d4d"
         id="stop354" />
      <!-- most of the background -->
    </linearGradient>
    <linearGradient
       id="d-2"
       x1="-102.28"
       y1="165.06"
       x2="-102.23"
       y2="165.05"
       gradientTransform="matrix(160,0,0,-128,16377,21140)"
       gradientUnits="userSpaceOnUse">
      <!-- top right corner of top left section -->
      <stop
         offset="0"
         stop-color="#fc56a1"
         id="stop357" />
      <stop
         offset="1"
         stop-color="#fc56a1"
         stop-opacity="0"
         id="stop359" />
    </linearGradient>
    <linearGradient
       id="e-1"
       x1="-102.13"
       y1="165.06"
       x2="-102.05"
       y2="165.01"
       gradientTransform="matrix(128,0,0,-128,13081,21140)"
       gradientUnits="userSpaceOnUse">
      <!-- gradient continuing from d -->
      <stop
         offset="0"
         stop-color="#fc4ca0"
         id="stop362" />
      <!-- upper part -->
      <stop
         offset="1"
         stop-color="#ffa769"
         id="stop364" />
      <!-- lower part -->
    </linearGradient>
    <linearGradient
       id="f-6"
       x1="-102.01"
       y1="165.09"
       x2="-101.93"
       y2="165.03"
       gradientTransform="matrix(107,0,0,-128,10918,21140)"
       gradientUnits="userSpaceOnUse">
      <!-- 1st main gradient from right in top left section, extends around and outside too -->
      <stop
         offset="0"
         stop-color="#4e27a4"
         id="stop367" />
      <!-- top left corner -->
      <stop
         offset=".34"
         stop-color="#8b4ee5"
         id="stop369" />
      <!-- next section -->
      <stop
         offset=".73"
         stop-color="#ff4ad9"
         id="stop371" />
      <!-- next section (most of what's left in the box, extends to neighbouring gradient too) -->
      <stop
         offset="1"
         stop-color="#ff778e"
         id="stop373" />
      <!-- leftovers in the box as well as the part outside it -->
    </linearGradient>
    <linearGradient
       id="g-4"
       x1="-101.95"
       y1="165.14"
       x2="-101.8"
       y2="164.97"
       gradientTransform="matrix(99,0,0,-128,10094.01,21140)"
       gradientUnits="userSpaceOnUse">
      <!-- 2nd main gradient from right in top left section -->
      <stop
         offset="0"
         stop-color="#20123a"
         id="stop376" />
      <!-- upper part -->
      <stop
         offset=".51"
         stop-color="#5f2eca"
         id="stop378" />
      <!-- main part -->
      <stop
         offset="1"
         stop-color="#7542e5"
         stop-opacity="0"
         id="stop380" />
      <!-- bottom part -->
    </linearGradient>
    <mask
       id="c-2"
       x="2"
       y="2"
       width="26.73"
       height="21"
       maskUnits="userSpaceOnUse">
      <path
         fill="url(#a)"
         d="M2 2h26.73v21H2z"
         id="path383" />
    </mask>
  </defs>
  <g
     inkscape:label="Layer 1"
     inkscape:groupmode="layer"
     id="layer1">
    <g
       id="g454">
      <path
         d="M 2,2 H 30 V 30 H 2 Z"
         fill-rule="evenodd"
         fill="url(#b)"
         id="path388"
         style="fill:url(#b-0)" />
      <g
         mask="url(#c-2)"
         id="g400">
        <path
           d="M 2,2 H 28.73 V 23 H 2 Z"
           fill="url(#d)"
           id="path390"
           style="fill:url(#d-2)" />
        <path
           d="m 14,2 c 5.36,1.55 9.35,7.38 9.35,14.34 A 17.23,17.23 0 0 1 22.07,23 H 2 V 6.64 A 12.08,12.08 0 0 1 8.34,2 Z"
           fill="url(#e)"
           id="path392"
           style="fill:url(#e-1)" />
        <path
           d="m 13.84,2 c 3.61,2.56 6,7.3 6,12.72 A 16.88,16.88 0 0 1 17.77,23 H 2 V 2 Z"
           fill="url(#f)"
           id="path394"
           style="fill:url(#f-6)" />
        <path
           d="m 9.05,2 7.86,10.94 A 9.35,9.35 0 0 1 17.22,23 H 6.56 L 2,16.65 V 2 Z"
           fill="url(#g)"
           id="path396"
           style="fill:url(#g-4)" />
        <path
           d="m 7.16,12.64 0.36,0.49 A 21.45,21.45 0 0 1 11.69,23 H 2 V 2 h 1 a 20.5,20.5 0 0 0 4.16,10.64 z"
           fill="#20123a"
           id="path398" />
        <!-- leftmost section of top left area -->
      </g>
      <path
         fill="#271d4d"
         fill-opacity="0.7"
         d="M 16,2 V 15 H 2 V 30 H 30 V 2 Z"
         id="path402" />
      <rect
         x="1"
         y="1"
         width="30"
         height="30"
         rx="2"
         fill="none"
         stroke="#08091a"
         stroke-opacity="0.35"
         stroke-width="2"
         id="rect404" />
      <circle
         cx="9.5"
         cy="22.5"
         r="6"
         fill="#413466"
         fill-opacity="1"
         stroke="#22193e"
         id="circle406" />
      <path
         d="M 12.5,22 H 7.71 l 2.14,-2.15 a 0.49497475,0.49497475 0 0 0 -0.7,-0.7 l -3,3 a 0.36,0.36 0 0 0 -0.11,0.16 0.5,0.5 0 0 0 0,0.38 0.36,0.36 0 0 0 0.11,0.16 l 3,3 a 0.48,0.48 0 0 0 0.7,0 0.48,0.48 0 0 0 0,-0.7 L 7.71,23 h 4.79 a 0.5,0.5 0 0 0 0,-1 z m 8,-2 h 4 a 0.5,0.5 0 0 0 0,-1 h -4 a 0.5,0.5 0 0 0 0,1 z m 4,2 h -4 a 0.5,0.5 0 0 0 0,1 h 4 a 0.5,0.5 0 0 0 0,-1 z m 0,3 h -4 a 0.5,0.5 0 0 0 0,1 h 4 a 0.5,0.5 0 0 0 0,-1 z"
         fill="#c68aff"
         id="path408" />
      <path
         fill="#ac70ff"
         d="M 16,2 H 30 V 3 H 16 Z"
         id="path410" />
      <path
         d="m 26.35,8.65 -3.5,-3.5 a 0.48,0.48 0 0 0 -0.7,0 l -3.5,3.5 a 0.49497475,0.49497475 0 0 0 0.7,0.7 L 20,8.71 v 2.79 a 0.5,0.5 0 0 0 0.5,0.5 h 4 A 0.5,0.5 0 0 0 25,11.5 V 8.71 l 0.65,0.64 a 0.48,0.48 0 0 0 0.7,0 0.48,0.48 0 0 0 0,-0.7 z M 24,11 H 23 V 9 h -1 v 2 H 21 V 7.71 l 1.5,-1.5 1.5,1.5 z"
         fill="#c68aff"
         id="path412" />
      <path
         fill="#20123b"
         d="M 15,2 V 14 H 2 v 1 H 16 V 2 Z"
         id="path414" />
    </g>
    <g
       id="g488"
       transform="matrix(0.80126453,0,0,0.80126453,2.0993677,1.6003677)">
      <circle
         fill="#8000d7"
         cx="8"
         cy="8"
         r="7.5"
         id="circle470" />
      <path
         fill="#ffffff"
         d="M 13.948,5.886 C 12.805,4.385 10.56,4.193 9.163,5.477 L 8.381,6.195 H 7.616 L 6.834,5.477 C 5.436,4.193 3.192,4.385 2.048,5.886 1.9,6.471 2.129,8.631 2.258,8.971 c 0.26,1.372 1.382,2.404 2.726,2.404 0.671,0 1.279,-0.268 1.76,-0.697 L 7.037,10.427 A 1.451,1.451 0 0 1 8.92,10.411 l 0.44,0.364 v -0.002 a 2.622,2.622 0 0 0 1.652,0.601 c 1.344,0 2.466,-1.032 2.726,-2.404 0.13,-0.339 0.367,-2.49 0.21,-3.084 z"
         id="path472" />
      <path
         fill="#8000d7"
         d="m 5.3,6.843 c -0.558,0 -1.054,0.233 -1.374,0.594 a 0.519,0.519 0 0 0 0,0.678 c 0.32,0.362 0.816,0.594 1.374,0.594 0.558,0 1.054,-0.233 1.374,-0.594 a 0.519,0.519 0 0 0 0,-0.678 A 1.828,1.828 0 0 0 5.3,6.843 Z"
         id="path474" />
      <path
         fill="#8000d7"
         d="m 10.7,6.843 c -0.558,0 -1.054,0.233 -1.374,0.594 a 0.519,0.519 0 0 0 0,0.678 c 0.32,0.362 0.816,0.594 1.374,0.594 0.558,0 1.054,-0.233 1.374,-0.594 a 0.519,0.519 0 0 0 0,-0.678 A 1.828,1.828 0 0 0 10.7,6.843 Z"
         id="path476" />
    </g>
  </g>
</svg>
